# xmcd CD database file
#
# Track frame offsets:
#	150
#	10289
#	24156
#	39224
#	53850
#	87237
#	94693
#	108929
#	123240
#	131981
#	153935
#	167388
#	182867
#	195606
#	211717
#	227610
#	241669
#	254559
#	269512
#	280934
#
# Disc length: 3888 seconds
#
# Revision: 0
# Processed by: cddbd v1.5.2PL0 Copyright (c) Steve Scherf et al.
# Submitted via: CDex 1.70beta2
#
DISCID=010f2e14
DTITLE=Various Jazz Orchestra - Swing Jazz Best
DYEAR=1950
DGENRE=Jazz
TTITLE0=Let's Dance - Benny Goodman Orchestra
TTITLE1=Don't Be That Way -  Benny Goodman Orchestra
TTITLE2=Memories Of You - Benny Goodman Orchestra
TTITLE3=Stopin' At Savoy - Benny Goodman Orchestra
TTITLE4=Sing, Sing, Sing - Benny Goodman Orchestra
TTITLE5=Ciribiribin - Harry James Orchestra
TTITLE6=Sleepy Lagoon - Harry James and His Orchestra
TTITLE7=Music Makers - Harry James and His Orchestra
TTITLE8=Sleepy Time Gal - Harry James and His Orchestra
TTITLE9=C Jam Blues - Duke Ellington Orchestra
TTITLE10=Satin Doll - Duke Ellington Orchestra
TTITLE11=Moonlight Serenade - Glen Gley and Casa Loma Orchestra 
TTITLE12=A String Of Pearls - Glen Gley and Casa Loma Orchestra
TTITLE13=In The Mood - Glen Gley and Casa Loma Orchestra
TTITLE14=Tuxedo Junction - Glen Gley and Casa Loma Orchestra
TTITLE15=One O'clock Jump - Glen Gley and Casa Loma Orchestra
TTITLE16=Jumpin' At Woodside - Glen Gley and Casa Loma Orchestra
TTITLE17=Begin The Beguine - Artie Shaw Orchestra
TTITLE18=The Man With The Horn - Ray Anthony and His Orchestra
TTITLE19=Harbour Lights - Guy Lombardo and The Royal Canadians 
EXTD=YEAR: 1950
EXTT0=
EXTT1=
EXTT2=
EXTT3=
EXTT4=
EXTT5=
EXTT6=
EXTT7=
EXTT8=
EXTT9=
EXTT10=
EXTT11=
EXTT12=
EXTT13=
EXTT14=
EXTT15=
EXTT16=
EXTT17=
EXTT18=
EXTT19=
PLAYORDER=
